<svg width="16" height="10" viewBox="0 0 16 10" fill="none" xmlns="http://www.w3.org/2000/svg">
<path d="M12.7309 3.168C12.2778 3.168 11.8408 3.26304 11.4362 3.42145L10.886 2.37599V0.712752C10.886 0.61771 10.8213 0.522668 10.7242 0.490987L9.42948 0.0157777C9.30001 -0.0317433 9.17054 0.031618 9.12199 0.158341C9.07344 0.285063 9.13817 0.411786 9.26764 0.459307L10.4167 0.871155V2.21758H5.67489V1.75821H6.2575C6.38697 1.75821 6.50025 1.64733 6.50025 1.52061C6.50025 1.39389 6.38697 1.283 6.2575 1.283H4.75243C4.62296 1.283 4.50967 1.39389 4.50967 1.52061C4.50967 1.64733 4.62296 1.75821 4.75243 1.75821H5.18938V2.40767L4.72006 3.40561C4.36402 3.26304 3.95943 3.18384 3.55485 3.18384C1.75847 3.18384 0.285767 4.60947 0.285767 6.38359C0.285767 8.1577 1.74229 9.58333 3.55485 9.58333C5.2703 9.58333 6.67827 8.26859 6.80774 6.62119H7.85967C7.94059 6.62119 8.00532 6.58951 8.05387 6.52615L10.5947 2.9304L10.9993 3.67489C10.0768 4.21346 9.46184 5.22724 9.46184 6.36775C9.46184 8.12602 10.9184 9.56749 12.7309 9.56749C14.5435 9.56749 16 8.14186 16 6.36775C16 4.59363 14.5435 3.168 12.7309 3.168ZM3.55485 9.09228C2.01741 9.09228 0.771273 7.87258 0.771273 6.36775C0.771273 4.86292 2.01741 3.64321 3.55485 3.64321C3.8947 3.64321 4.21837 3.70657 4.50967 3.81746L3.32828 6.27271C3.32828 6.27271 3.32828 6.27271 3.32828 6.28855C3.31209 6.32023 3.31209 6.33607 3.31209 6.36775C3.31209 6.36775 3.31209 6.36775 3.31209 6.38359C3.31209 6.41527 3.31209 6.43111 3.32828 6.46279V6.47863C3.32828 6.49447 3.32828 6.49447 3.34446 6.51031C3.34446 6.52615 3.36064 6.52615 3.37683 6.54199C3.37683 6.54199 3.37683 6.54199 3.37683 6.55783C3.39301 6.57367 3.42538 6.58951 3.44156 6.60535H3.45774C3.49011 6.62119 3.50629 6.62119 3.53866 6.62119H6.30605C6.19276 7.9993 5.01137 9.09228 3.55485 9.09228ZM3.92707 6.13014L4.94663 4.02338C5.70726 4.45107 6.24132 5.22724 6.32223 6.13014H3.92707V6.13014ZM7.7302 6.13014H6.79156C6.71064 5.03716 6.0633 4.10258 5.14083 3.57985L5.57779 2.67695H10.1577L7.7302 6.13014ZM12.7147 9.09228C11.1773 9.09228 9.93117 7.87258 9.93117 6.36775C9.93117 5.40149 10.449 4.56195 11.2259 4.0709L12.5044 6.47863C12.5529 6.55783 12.6338 6.60535 12.7147 6.60535C12.7471 6.60535 12.7957 6.58951 12.828 6.57367C12.9413 6.51031 12.9899 6.36775 12.9251 6.25687L11.6466 3.84914C11.9865 3.72241 12.3425 3.64321 12.7147 3.64321C14.2522 3.64321 15.4983 4.86292 15.4983 6.36775C15.4983 7.87258 14.2522 9.09228 12.7147 9.09228Z" fill="black"/>
</svg>
