<svg width="197" height="25" viewBox="0 0 197 25" fill="none" xmlns="http://www.w3.org/2000/svg">
<path d="M30.8867 8.38302C29.7621 8.38302 28.6776 8.62401 27.6735 9.02566L26.3079 6.37478V2.15748C26.3079 1.91649 26.1473 1.6755 25.9063 1.59517L22.6931 0.390226C22.3718 0.269731 22.0505 0.43039 21.93 0.751709C21.8095 1.07303 21.9701 1.39435 22.2914 1.51484L25.1431 2.55912V5.97313H13.3749V4.80835H14.8208C15.1421 4.80835 15.4233 4.5272 15.4233 4.20588C15.4233 3.88456 15.1421 3.60341 14.8208 3.60341H11.0855C10.7642 3.60341 10.483 3.88456 10.483 4.20588C10.483 4.5272 10.7642 4.80835 11.0855 4.80835H12.1699V6.45511L11.0051 8.98549C10.1215 8.62401 9.1174 8.42318 8.11328 8.42318C3.65499 8.42318 0 12.038 0 16.5365C0 21.0349 3.61483 24.6498 8.11328 24.6498C12.3707 24.6498 15.8651 21.3161 16.1864 17.1389H18.7971C18.9979 17.1389 19.1586 17.0586 19.2791 16.898L25.585 7.78055L26.5891 9.66829C24.2997 11.0339 22.7734 13.6044 22.7734 16.4963C22.7734 20.9546 26.3883 24.6096 30.8867 24.6096C35.3852 24.6096 39 20.9948 39 16.4963C39 11.9979 35.3852 8.38302 30.8867 8.38302ZM8.11328 23.4047C4.29763 23.4047 1.20494 20.312 1.20494 16.4963C1.20494 12.6807 4.29763 9.58796 8.11328 9.58796C8.95674 9.58796 9.76004 9.74862 10.483 10.0298L7.55098 16.2553C7.55098 16.2553 7.55098 16.2553 7.55098 16.2955C7.51081 16.3758 7.51081 16.416 7.51081 16.4963C7.51081 16.4963 7.51081 16.4963 7.51081 16.5365C7.51081 16.6168 7.51081 16.657 7.55098 16.7373V16.7775C7.55098 16.8176 7.55098 16.8176 7.59114 16.8578C7.59114 16.898 7.63131 16.898 7.67147 16.9381C7.67147 16.9381 7.67147 16.9381 7.67147 16.9783C7.71164 17.0184 7.79197 17.0586 7.83213 17.0988H7.8723C7.95262 17.1389 7.99279 17.1389 8.07312 17.1389H14.9413C14.6601 20.6333 11.7281 23.4047 8.11328 23.4047ZM9.03707 15.8938L11.5675 10.5519C13.4552 11.6364 14.7806 13.6044 14.9815 15.8938H9.03707V15.8938ZM18.4758 15.8938H16.1462C15.9454 13.1225 14.3388 10.7527 12.0494 9.4273L13.1339 7.13791H24.5005L18.4758 15.8938ZM30.8465 23.4047C27.0309 23.4047 23.9382 20.312 23.9382 16.4963C23.9382 14.0463 25.2235 11.9175 27.1514 10.6724L30.3244 16.7775C30.4449 16.9783 30.6457 17.0988 30.8465 17.0988C30.9269 17.0988 31.0474 17.0586 31.1277 17.0185C31.4089 16.8578 31.5293 16.4963 31.3687 16.2152L28.1957 10.1101C29.0391 9.78879 29.9228 9.58796 30.8465 9.58796C34.6622 9.58796 37.7549 12.6807 37.7549 16.4963C37.7549 20.312 34.6622 23.4047 30.8465 23.4047Z" fill="white" fill-opacity="0.73"/>
<path d="M52.0723 17.4067C52.6826 17.4067 53.1929 17.2358 53.603 16.894C54.0181 16.5474 54.2427 16.1006 54.2769 15.5537H55.1191C55.0947 16.0371 54.9434 16.479 54.665 16.8794C54.3867 17.2749 54.0156 17.585 53.5518 17.8096C53.0928 18.0342 52.5996 18.1465 52.0723 18.1465C51.0322 18.1465 50.207 17.7852 49.5967 17.0625C48.9912 16.3398 48.6885 15.3682 48.6885 14.1475V13.8838C48.6885 13.1025 48.8252 12.4116 49.0986 11.811C49.3721 11.2104 49.7627 10.7466 50.2705 10.4194C50.7832 10.0923 51.3813 9.92871 52.0649 9.92871C52.9341 9.92871 53.6494 10.1875 54.2109 10.7051C54.7773 11.2227 55.0801 11.9038 55.1191 12.7485H54.2769C54.2378 12.1284 54.0132 11.6279 53.603 11.2471C53.1978 10.8662 52.6851 10.6758 52.0649 10.6758C51.2739 10.6758 50.6587 10.9614 50.2192 11.5327C49.7847 12.104 49.5674 12.9048 49.5674 13.9351V14.1914C49.5674 15.2021 49.7847 15.9907 50.2192 16.5571C50.6587 17.1235 51.2764 17.4067 52.0723 17.4067ZM61.8794 18C61.7915 17.751 61.7354 17.3823 61.7109 16.894C61.4033 17.2944 61.0103 17.6045 60.5317 17.8242C60.0581 18.0391 59.5552 18.1465 59.0229 18.1465C58.2612 18.1465 57.6436 17.9341 57.1699 17.5093C56.7012 17.0845 56.4668 16.5474 56.4668 15.8979C56.4668 15.1265 56.7866 14.5161 57.4263 14.0669C58.0708 13.6177 58.9668 13.3931 60.1143 13.3931H61.7036V12.4922C61.7036 11.9258 61.5278 11.4814 61.1763 11.1592C60.8296 10.832 60.3218 10.6685 59.6528 10.6685C59.0425 10.6685 58.5371 10.8247 58.1367 11.1372C57.7363 11.4497 57.5361 11.8257 57.5361 12.2651L56.6572 12.2578C56.6572 11.6279 56.9502 11.0835 57.5361 10.6245C58.1221 10.1606 58.8423 9.92871 59.6968 9.92871C60.5806 9.92871 61.2764 10.1509 61.7842 10.5952C62.2969 11.0347 62.5605 11.6499 62.5752 12.4409V16.1909C62.5752 16.9575 62.6558 17.5312 62.8169 17.9121V18H61.8794ZM59.1255 17.3701C59.7114 17.3701 60.2339 17.2285 60.6929 16.9453C61.1567 16.6621 61.4937 16.2837 61.7036 15.8101V14.0669H60.1362C59.2622 14.0767 58.5786 14.2378 58.0854 14.5503C57.5923 14.8579 57.3457 15.2827 57.3457 15.8247C57.3457 16.269 57.5093 16.6377 57.8364 16.9307C58.1685 17.2236 58.5981 17.3701 59.1255 17.3701ZM65.9004 18H65.0215V6.75H65.9004V18ZM71.2178 17.4067C71.8281 17.4067 72.3384 17.2358 72.7485 16.894C73.1636 16.5474 73.3882 16.1006 73.4224 15.5537H74.2646C74.2402 16.0371 74.0889 16.479 73.8105 16.8794C73.5322 17.2749 73.1611 17.585 72.6973 17.8096C72.2383 18.0342 71.7451 18.1465 71.2178 18.1465C70.1777 18.1465 69.3525 17.7852 68.7422 17.0625C68.1367 16.3398 67.834 15.3682 67.834 14.1475V13.8838C67.834 13.1025 67.9707 12.4116 68.2441 11.811C68.5176 11.2104 68.9082 10.7466 69.416 10.4194C69.9287 10.0923 70.5269 9.92871 71.2104 9.92871C72.0796 9.92871 72.7949 10.1875 73.3564 10.7051C73.9229 11.2227 74.2256 11.9038 74.2646 12.7485H73.4224C73.3833 12.1284 73.1587 11.6279 72.7485 11.2471C72.3433 10.8662 71.8306 10.6758 71.2104 10.6758C70.4194 10.6758 69.8042 10.9614 69.3647 11.5327C68.9302 12.104 68.7129 12.9048 68.7129 13.9351V14.1914C68.7129 15.2021 68.9302 15.9907 69.3647 16.5571C69.8042 17.1235 70.4219 17.4067 71.2178 17.4067ZM81.1201 16.9966C80.5928 17.7632 79.7505 18.1465 78.5933 18.1465C77.7485 18.1465 77.1064 17.9023 76.667 17.4141C76.2275 16.9209 76.0029 16.1934 75.9932 15.2314V10.0752H76.8647V15.1216C76.8647 16.6304 77.4751 17.3848 78.6958 17.3848C79.9653 17.3848 80.7686 16.8599 81.1055 15.8101V10.0752H81.9844V18H81.1348L81.1201 16.9966ZM85.251 18H84.3721V6.75H85.251V18ZM92.6411 18C92.5532 17.751 92.4971 17.3823 92.4727 16.894C92.165 17.2944 91.772 17.6045 91.2935 17.8242C90.8198 18.0391 90.3169 18.1465 89.7847 18.1465C89.0229 18.1465 88.4053 17.9341 87.9316 17.5093C87.4629 17.0845 87.2285 16.5474 87.2285 15.8979C87.2285 15.1265 87.5483 14.5161 88.188 14.0669C88.8325 13.6177 89.7285 13.3931 90.876 13.3931H92.4653V12.4922C92.4653 11.9258 92.2896 11.4814 91.938 11.1592C91.5913 10.832 91.0835 10.6685 90.4146 10.6685C89.8042 10.6685 89.2988 10.8247 88.8984 11.1372C88.498 11.4497 88.2979 11.8257 88.2979 12.2651L87.4189 12.2578C87.4189 11.6279 87.7119 11.0835 88.2979 10.6245C88.8838 10.1606 89.604 9.92871 90.4585 9.92871C91.3423 9.92871 92.0381 10.1509 92.5459 10.5952C93.0586 11.0347 93.3223 11.6499 93.3369 12.4409V16.1909C93.3369 16.9575 93.4175 17.5312 93.5786 17.9121V18H92.6411ZM89.8872 17.3701C90.4731 17.3701 90.9956 17.2285 91.4546 16.9453C91.9185 16.6621 92.2554 16.2837 92.4653 15.8101V14.0669H90.8979C90.0239 14.0767 89.3403 14.2378 88.8472 14.5503C88.354 14.8579 88.1074 15.2827 88.1074 15.8247C88.1074 16.269 88.271 16.6377 88.5981 16.9307C88.9302 17.2236 89.3599 17.3701 89.8872 17.3701ZM97.043 8.04639V10.0752H98.6836V10.793H97.043V16.0737C97.043 16.5132 97.1211 16.8403 97.2773 17.0552C97.4385 17.27 97.7046 17.3774 98.0757 17.3774C98.2222 17.3774 98.459 17.353 98.7861 17.3042L98.8228 18.022C98.5933 18.105 98.2808 18.1465 97.8853 18.1465C97.2847 18.1465 96.8477 17.9731 96.5742 17.6265C96.3008 17.2749 96.1641 16.7598 96.1641 16.0811V10.793H94.7065V10.0752H96.1641V8.04639H97.043ZM103.569 18.1465C102.895 18.1465 102.285 17.9805 101.738 17.6484C101.196 17.3164 100.773 16.855 100.471 16.2642C100.168 15.6685 100.017 15.002 100.017 14.2646V13.9497C100.017 13.188 100.163 12.502 100.456 11.8916C100.754 11.2812 101.167 10.8027 101.694 10.4561C102.221 10.1045 102.792 9.92871 103.408 9.92871C104.37 9.92871 105.131 10.2583 105.693 10.9175C106.259 11.5718 106.542 12.4678 106.542 13.6055V14.0962H100.888V14.2646C100.888 15.1631 101.145 15.9126 101.657 16.5132C102.175 17.1089 102.824 17.4067 103.605 17.4067C104.074 17.4067 104.487 17.3213 104.843 17.1504C105.205 16.9795 105.532 16.7061 105.825 16.3301L106.374 16.7476C105.729 17.6802 104.794 18.1465 103.569 18.1465ZM103.408 10.6758C102.749 10.6758 102.192 10.9175 101.738 11.4009C101.289 11.8843 101.015 12.5337 100.917 13.3491H105.671V13.2539C105.646 12.4922 105.429 11.8721 105.019 11.3936C104.609 10.915 104.072 10.6758 103.408 10.6758ZM112.695 10.0752L112.724 11.3643C113.017 10.8857 113.383 10.5269 113.823 10.2876C114.262 10.0483 114.75 9.92871 115.288 9.92871C116.538 9.92871 117.331 10.4414 117.668 11.4668C117.951 10.9736 118.33 10.5952 118.803 10.3315C119.277 10.063 119.799 9.92871 120.371 9.92871C122.07 9.92871 122.937 10.8564 122.971 12.7119V18H122.092V12.7778C122.087 12.0698 121.933 11.5449 121.63 11.2031C121.333 10.8613 120.844 10.6904 120.166 10.6904C119.536 10.7002 119.003 10.9053 118.569 11.3057C118.134 11.7012 117.893 12.1846 117.844 12.7559V18H116.965V12.7119C116.96 12.0332 116.799 11.5278 116.481 11.1958C116.169 10.8589 115.686 10.6904 115.031 10.6904C114.479 10.6904 114.006 10.8491 113.61 11.1665C113.215 11.479 112.922 11.9453 112.731 12.5654V18H111.853V10.0752H112.695ZM124.714 13.9204C124.714 13.1587 124.86 12.4727 125.153 11.8623C125.451 11.252 125.869 10.7783 126.406 10.4414C126.948 10.0996 127.561 9.92871 128.244 9.92871C129.299 9.92871 130.153 10.2998 130.808 11.042C131.462 11.7793 131.789 12.7583 131.789 13.979V14.1621C131.789 14.9287 131.64 15.6196 131.342 16.2349C131.049 16.8452 130.634 17.3164 130.097 17.6484C129.56 17.9805 128.947 18.1465 128.259 18.1465C127.209 18.1465 126.354 17.7778 125.695 17.0405C125.041 16.2983 124.714 15.3169 124.714 14.0962V13.9204ZM125.593 14.1621C125.593 15.1094 125.837 15.8882 126.325 16.4985C126.818 17.104 127.463 17.4067 128.259 17.4067C129.05 17.4067 129.689 17.104 130.178 16.4985C130.671 15.8882 130.917 15.085 130.917 14.0889V13.9204C130.917 13.3149 130.805 12.7607 130.581 12.2578C130.356 11.7549 130.041 11.3667 129.636 11.0933C129.23 10.8149 128.767 10.6758 128.244 10.6758C127.463 10.6758 126.826 10.9834 126.333 11.5986C125.839 12.209 125.593 13.0098 125.593 14.001V14.1621ZM137.268 10.8223C137.082 10.7881 136.884 10.771 136.674 10.771C136.127 10.771 135.664 10.9248 135.283 11.2324C134.907 11.5352 134.638 11.9771 134.477 12.5581V18H133.605V10.0752H134.462L134.477 11.335C134.941 10.3975 135.686 9.92871 136.711 9.92871C136.955 9.92871 137.148 9.96045 137.29 10.0239L137.268 10.8223ZM141.582 18.1465C140.908 18.1465 140.297 17.9805 139.75 17.6484C139.208 17.3164 138.786 16.855 138.483 16.2642C138.181 15.6685 138.029 15.002 138.029 14.2646V13.9497C138.029 13.188 138.176 12.502 138.469 11.8916C138.767 11.2812 139.179 10.8027 139.707 10.4561C140.234 10.1045 140.805 9.92871 141.42 9.92871C142.382 9.92871 143.144 10.2583 143.706 10.9175C144.272 11.5718 144.555 12.4678 144.555 13.6055V14.0962H138.901V14.2646C138.901 15.1631 139.157 15.9126 139.67 16.5132C140.188 17.1089 140.837 17.4067 141.618 17.4067C142.087 17.4067 142.5 17.3213 142.856 17.1504C143.217 16.9795 143.544 16.7061 143.837 16.3301L144.387 16.7476C143.742 17.6802 142.807 18.1465 141.582 18.1465ZM141.42 10.6758C140.761 10.6758 140.205 10.9175 139.75 11.4009C139.301 11.8843 139.028 12.5337 138.93 13.3491H143.684V13.2539C143.659 12.4922 143.442 11.8721 143.032 11.3936C142.622 10.915 142.084 10.6758 141.42 10.6758ZM151.271 8.04639V10.0752H152.912V10.793H151.271V16.0737C151.271 16.5132 151.35 16.8403 151.506 17.0552C151.667 17.27 151.933 17.3774 152.304 17.3774C152.451 17.3774 152.688 17.353 153.015 17.3042L153.051 18.022C152.822 18.105 152.509 18.1465 152.114 18.1465C151.513 18.1465 151.076 17.9731 150.803 17.6265C150.529 17.2749 150.393 16.7598 150.393 16.0811V10.793H148.935V10.0752H150.393V8.04639H151.271ZM155.6 11.4155C155.888 10.9419 156.257 10.5757 156.706 10.3169C157.155 10.0581 157.646 9.92871 158.178 9.92871C159.028 9.92871 159.66 10.168 160.075 10.6465C160.49 11.125 160.7 11.8428 160.705 12.7998V18H159.833V12.7925C159.829 12.0845 159.677 11.5571 159.379 11.2104C159.086 10.8638 158.615 10.6904 157.966 10.6904C157.424 10.6904 156.943 10.8613 156.523 11.2031C156.108 11.54 155.8 11.9966 155.6 12.5728V18H154.729V6.75H155.6V11.4155ZM163.942 18H163.063V10.0752H163.942V18ZM162.91 7.78271C162.91 7.6167 162.963 7.47754 163.071 7.36523C163.178 7.24805 163.325 7.18945 163.51 7.18945C163.696 7.18945 163.842 7.24805 163.95 7.36523C164.062 7.47754 164.118 7.6167 164.118 7.78271C164.118 7.94873 164.062 8.08789 163.95 8.2002C163.842 8.3125 163.696 8.36865 163.51 8.36865C163.325 8.36865 163.178 8.3125 163.071 8.2002C162.963 8.08789 162.91 7.94873 162.91 7.78271ZM167.165 10.0752L167.194 11.4302C167.492 10.9419 167.863 10.5708 168.308 10.3169C168.752 10.0581 169.243 9.92871 169.78 9.92871C170.629 9.92871 171.262 10.168 171.677 10.6465C172.092 11.125 172.302 11.8428 172.307 12.7998V18H171.435V12.7925C171.43 12.0845 171.279 11.5571 170.981 11.2104C170.688 10.8638 170.217 10.6904 169.567 10.6904C169.025 10.6904 168.544 10.8613 168.125 11.2031C167.709 11.54 167.402 11.9966 167.202 12.5728V18H166.33V10.0752H167.165ZM174.226 13.9644C174.226 12.7241 174.499 11.7427 175.046 11.02C175.598 10.2925 176.345 9.92871 177.287 9.92871C178.366 9.92871 179.187 10.3584 179.748 11.2178L179.792 10.0752H180.612V17.8389C180.612 18.8594 180.327 19.6675 179.755 20.2632C179.184 20.8589 178.41 21.1567 177.434 21.1567C176.882 21.1567 176.354 21.0322 175.852 20.7832C175.354 20.5391 174.96 20.2119 174.672 19.8018L175.163 19.2744C175.783 20.0361 176.521 20.417 177.375 20.417C178.107 20.417 178.679 20.1997 179.089 19.7651C179.499 19.3354 179.711 18.7373 179.726 17.9707V16.9746C179.165 17.7559 178.347 18.1465 177.272 18.1465C176.354 18.1465 175.617 17.7803 175.061 17.0479C174.504 16.3154 174.226 15.3267 174.226 14.0815V13.9644ZM175.112 14.1182C175.112 15.1289 175.314 15.9272 175.72 16.5132C176.125 17.0942 176.696 17.3848 177.434 17.3848C178.513 17.3848 179.277 16.9014 179.726 15.9346V12.2505C179.521 11.7427 179.226 11.3569 178.84 11.0933C178.454 10.8247 177.99 10.6904 177.448 10.6904C176.711 10.6904 176.137 10.981 175.727 11.562C175.317 12.1382 175.112 12.9902 175.112 14.1182ZM187.644 15.9858C187.644 15.5513 187.468 15.2021 187.116 14.9385C186.77 14.6748 186.245 14.4697 185.542 14.3232C184.838 14.1719 184.292 14.001 183.901 13.8105C183.515 13.6152 183.227 13.3784 183.037 13.1001C182.851 12.8218 182.758 12.4849 182.758 12.0894C182.758 11.4644 183.02 10.9492 183.542 10.5439C184.064 10.1338 184.733 9.92871 185.549 9.92871C186.433 9.92871 187.141 10.1484 187.673 10.5879C188.21 11.0225 188.479 11.5913 188.479 12.2944H187.6C187.6 11.8306 187.404 11.4448 187.014 11.1372C186.628 10.8296 186.14 10.6758 185.549 10.6758C184.973 10.6758 184.509 10.8052 184.157 11.064C183.811 11.3179 183.637 11.6499 183.637 12.0601C183.637 12.4556 183.781 12.7632 184.069 12.9829C184.362 13.1978 184.892 13.3955 185.659 13.5762C186.43 13.7568 187.006 13.9497 187.387 14.1548C187.773 14.3599 188.059 14.6064 188.244 14.8945C188.43 15.1826 188.522 15.5317 188.522 15.9419C188.522 16.6108 188.251 17.1455 187.709 17.5459C187.172 17.9463 186.469 18.1465 185.6 18.1465C184.677 18.1465 183.928 17.9243 183.352 17.48C182.78 17.0308 182.495 16.4644 182.495 15.7808H183.374C183.408 16.2935 183.623 16.6938 184.018 16.9819C184.418 17.2651 184.946 17.4067 185.6 17.4067C186.21 17.4067 186.704 17.2725 187.08 17.0039C187.456 16.7354 187.644 16.396 187.644 15.9858Z" fill="white" fill-opacity="0.73"/>
<line x1="1" y1="24.75" x2="192" y2="24.75" stroke="white" stroke-opacity="0.69" stroke-width="0.5"/>
</svg>
